<?xml version="1.0" encoding="utf-8"?>
<!-- Generator: Adobe Illustrator 25.0.0, SVG Export Plug-In . SVG Version: 6.00 Build 0)  -->
<svg version="1.1" id="Camada_1" xmlns="http://www.w3.org/2000/svg" xmlns:xlink="http://www.w3.org/1999/xlink" x="0px" y="0px"
	 viewBox="0 0 1400 1400" style="enable-background:new 0 0 1400 1400;" xml:space="preserve">
<style type="text/css">
	.st0{fill:#FFFFFF;stroke:#1D1D1B;stroke-miterlimit:10;}
</style>
<path class="st0" d="M341.2,699c0-57.3-4.4-115,0.8-171.9c14.1-154.8,126.7-279.8,278.5-315c208.7-48.4,416.9,100.4,438,313.8
	c2.9,29.4,2.4,59.1,2.5,88.7c0.3,72.4,0.2,144.8,0.1,217.2c-0.4,183.1-128.5,332.5-309.2,360.9c-189.6,29.8-377.9-105.7-406.6-295.4
	c-7.2-47.5-4.7-96.5-6.2-144.8c-0.6-17.8-0.1-35.7-0.1-53.6C339.7,699,340.4,699,341.2,699z"/>
<path class="st0" d="M130.4,383.8C214.5,192.5,432.3,14.5,720,23c277.5,8.2,475.5,189.1,549.4,360.8c-31.8,0-63.2,0.4-94.5-0.5
	c-4-0.1-8.9-5.8-11.5-10c-50-82.1-116.9-146.5-201-193.1C709.1,39.7,387.4,125,237.6,372.7c-4.9,8.2-10,11.6-19.8,11.4
	C189.1,383.4,160.5,383.8,130.4,383.8z"/>
<path class="st0" d="M247.7,925.1c-41.3,0-81.8,2-122-0.5c-57.2-3.5-101.9-52.4-102.4-109.9c-0.7-76.6-0.7-153.2,0-229.8
	c0.5-57.5,45.2-106.5,102.4-109.9c40.2-2.4,80.7-0.5,122-0.5C247.7,624.5,247.7,774.1,247.7,925.1z"/>
<path class="st0" d="M1151.6,925.5c0-151.2,0-300.2,0-450.3c3.6-0.4,7.1-1,10.7-1.1c33.4-0.1,66.7-0.3,100.1,0
	c65.1,0.5,114.2,49.1,114.5,114.2c0.4,74.3,0.4,148.5,0,222.8c-0.3,65.1-49.3,113.8-114.4,114.3
	C1225.9,925.8,1189.4,925.5,1151.6,925.5z"/>
<path class="st0" d="M655.5,1376c0-29.9,0-58.8,0-89.3c13.6,0,26.6,0.2,39.6,0c203-3.4,359.7-89.9,469-261.6
	c2.4-3.8,7.1-8.7,10.8-8.8c31.3-0.7,62.6-0.4,94.4-0.4C1181.4,1216.2,951.7,1394.2,655.5,1376z"/>
</svg>
