<?xml version="1.0" encoding="utf-8"?>
<!-- Generator: Adobe Illustrator 25.0.0, SVG Export Plug-In . SVG Version: 6.00 Build 0)  -->
<svg version="1.1" id="Camada_1" xmlns="http://www.w3.org/2000/svg" xmlns:xlink="http://www.w3.org/1999/xlink" x="0px" y="0px"
	 viewBox="0 0 1400 1400" style="enable-background:new 0 0 1400 1400;" xml:space="preserve">
<style type="text/css">
	.st0{fill:#FFFFFF;}
</style>
<path class="st0" d="M517.5,903.7c-16.6-135.4-16.5-270.6-0.1-406.9c128,0,255.4,0,383.7,0c16.7,135.5,16.4,270.7,0.1,406.9
	C773.5,903.7,646,903.7,517.5,903.7z"/>
<path class="st0" d="M412.9,496.6c-13.6,136.1-13.7,271,0,407c-115.1,0-229.3,0-345.5,0c-42.8-134.9-42.7-270.5-0.1-407
	C182.1,496.6,296.3,496.6,412.9,496.6z"/>
<path class="st0" d="M1005.5,495.7c26.7,0,50.6,0,74.5,0c79.9,0,159.7,0.1,239.6-0.1c8.1,0,13.4,0.7,16.2,10.3
	c38.7,131.3,38.7,262.2-1.9,393.1c-0.5,1.5-1.3,2.9-2.3,5c-107.6,0-215.5,0-326,0C1019.1,768.3,1019.5,633.1,1005.5,495.7z"/>
<path class="st0" d="M528.5,1007.8c121.5,0,239.6,0,359.1,0c-13,74-28.6,146.7-59.2,214.8c-15.8,35.2-34.2,70-57,101
	c-40.1,54.5-82.6,53.6-124.6,0.8c-40.4-50.9-64.2-110.1-81.9-171.7C551.4,1105.2,540.8,1057,528.5,1007.8z"/>
<path class="st0" d="M530.8,392.7c17.6-95.4,39.3-188,86.8-271.9c12.7-22.4,28.6-43.9,46.5-62.3c29.2-29.9,59.7-30.2,89.5-0.7
	c17.9,17.7,33.5,38.8,46,60.7c48.6,84.7,70.4,178.3,87.9,274.3C768.5,392.7,650.5,392.7,530.8,392.7z"/>
<path class="st0" d="M110,393.4c95.5-173,235.5-283.7,421.7-335.8c-18.6,44-40.4,85.7-54,130C458.2,250.9,444.5,316,429,380.5
	c-2,8.2-3.1,13.1-13.4,13.1C315.1,393.2,214.5,393.4,110,393.4z"/>
<path class="st0" d="M535,1342.4c-181.5-42.7-346.1-178.1-422.8-335.3c5.4,0,9.8,0,14.3,0c94.7,0,189.5,0.3,284.2-0.3
	c12.7-0.1,16.7,3.5,18.9,16.1c17.5,99.2,41.8,196.5,88,286.9C522.9,1320.2,528.6,1330.4,535,1342.4z"/>
<path class="st0" d="M889.2,64.9c177.9,54.2,310.2,163.3,400.3,327.8c-100.4,0-198,0-297.4,0C971.9,279.5,945,167.9,889.2,64.9z"/>
<path class="st0" d="M1289.4,1008c-90.4,164.4-222.5,273.5-403.5,330.6c59-105.6,86-216.7,106.2-330.6
	C1090.6,1008,1188.5,1008,1289.4,1008z"/>
</svg>
